<?xml version="1.0" encoding="UTF-8"?>
<svg width="24" height="24" viewBox="0 0 24 24" xmlns="http://www.w3.org/2000/svg">
  <path fill="#ff99cc" d="M12,5 C13.1,5 14,5.9 14,7 C14,8.1 13.1,9 12,9 C10.9,9 10,8.1 10,7 C10,5.9 10.9,5 12,5 M17,12 C18.1,12 19,12.9 19,14 C19,15.1 18.1,16 17,16 C15.9,16 15,15.1 15,14 C15,12.9 15.9,12 17,12 M7,12 C8.1,12 9,12.9 9,14 C9,15.1 8.1,16 7,16 C5.9,16 5,15.1 5,14 C5,12.9 5.9,12 7,12 M12,17 C13.1,17 14,17.9 14,19 C14,20.1 13.1,21 12,21 C10.9,21 10,20.1 10,19 C10,17.9 10.9,17 12,17"/>
</svg>
